<svg xmlns="http://www.w3.org/2000/svg" width="1200" height="630" viewBox="0 0 1200 630">
  <defs>
    <linearGradient id="bg" x1="0%" y1="0%" x2="100%" y2="100%">
      <stop offset="0%" style="stop-color:#6366f1"/>
      <stop offset="100%" style="stop-color:#8b5cf6"/>
    </linearGradient>
  </defs>
  <rect width="1200" height="630" fill="url(#bg)"/>
  <rect x="60" y="60" width="1080" height="510" rx="24" fill="white" fill-opacity="0.1"/>
  <!-- Checkmark icon -->
  <rect x="100" y="200" width="80" height="80" rx="20" fill="white" fill-opacity="0.2"/>
  <path d="M125 240 L137 252 L160 225" stroke="white" stroke-width="5" fill="none" stroke-linecap="round" stroke-linejoin="round"/>
  <text x="200" y="235" font-family="system-ui, -apple-system, sans-serif" font-weight="800" font-size="64" fill="white">Peru</text>
  <text x="407" y="235" font-family="system-ui, -apple-system, sans-serif" font-weight="800" font-size="64" fill="#c7d2fe">Check</text>
  <text x="200" y="275" font-family="system-ui, -apple-system, sans-serif" font-weight="400" font-size="24" fill="#e0e7ff">Tu panel diario de informacion util para Peru</text>
  <!-- Feature pills -->
  <rect x="100" y="340" width="200" height="44" rx="22" fill="white" fill-opacity="0.15"/>
  <text x="200" y="368" font-family="system-ui, sans-serif" font-size="16" fill="white" text-anchor="middle" font-weight="600">Tipo de Cambio</text>
  <rect x="320" y="340" width="180" height="44" rx="22" fill="white" fill-opacity="0.15"/>
  <text x="410" y="368" font-family="system-ui, sans-serif" font-size="16" fill="white" text-anchor="middle" font-weight="600">Pico y Placa</text>
  <rect x="520" y="340" width="200" height="44" rx="22" fill="white" fill-opacity="0.15"/>
  <text x="620" y="368" font-family="system-ui, sans-serif" font-size="16" fill="white" text-anchor="middle" font-weight="600">Calculadoras</text>
  <rect x="740" y="340" width="180" height="44" rx="22" fill="white" fill-opacity="0.15"/>
  <text x="830" y="368" font-family="system-ui, sans-serif" font-size="16" fill="white" text-anchor="middle" font-weight="600">Feriados 2026</text>
  <text x="100" y="480" font-family="system-ui, sans-serif" font-size="18" fill="#c7d2fe">perucheck.com</text>
</svg>
